<mxfile host="app.diagrams.net" modified="2022-04-07T23:21:16.580Z" agent="5.0 (X11)" etag="P8_3TUGXFHW1gnhHZXut" version="17.4.0" type="github">
  <diagram id="6URpbPifea64lqmHeGhJ" name="Page-1">
    <mxGraphModel dx="832" dy="852" grid="1" gridSize="10" guides="1" tooltips="1" connect="1" arrows="1" fold="1" page="1" pageScale="1" pageWidth="650" pageHeight="400" math="0" shadow="1">
      <root>
        <mxCell id="0" />
        <mxCell id="1" parent="0" />
        <mxCell id="scXMGPz5spfUINmtOMEG-5" style="rounded=0;orthogonalLoop=1;jettySize=auto;html=1;exitX=0.5;exitY=1;exitDx=0;exitDy=0;endArrow=none;endFill=0;fillColor=#0050ef;strokeColor=#001DBC;fontStyle=1;strokeWidth=2;" edge="1" parent="1" source="scXMGPz5spfUINmtOMEG-1" target="scXMGPz5spfUINmtOMEG-2">
          <mxGeometry relative="1" as="geometry" />
        </mxCell>
        <mxCell id="scXMGPz5spfUINmtOMEG-1" value="1" style="ellipse;whiteSpace=wrap;html=1;aspect=fixed;fillColor=#0050ef;fontColor=#ffffff;strokeColor=#001DBC;fontStyle=1" vertex="1" parent="1">
          <mxGeometry x="300" y="-10" width="40" height="40" as="geometry" />
        </mxCell>
        <mxCell id="scXMGPz5spfUINmtOMEG-6" style="edgeStyle=none;rounded=0;orthogonalLoop=1;jettySize=auto;html=1;exitX=0;exitY=1;exitDx=0;exitDy=0;entryX=0.5;entryY=0;entryDx=0;entryDy=0;endArrow=none;endFill=0;fillColor=#0050ef;strokeColor=#001DBC;fontStyle=1;strokeWidth=2;" edge="1" parent="1" source="scXMGPz5spfUINmtOMEG-2" target="scXMGPz5spfUINmtOMEG-3">
          <mxGeometry relative="1" as="geometry" />
        </mxCell>
        <mxCell id="scXMGPz5spfUINmtOMEG-7" style="edgeStyle=none;rounded=0;orthogonalLoop=1;jettySize=auto;html=1;exitX=1;exitY=1;exitDx=0;exitDy=0;entryX=0.5;entryY=0;entryDx=0;entryDy=0;endArrow=none;endFill=0;fillColor=#0050ef;strokeColor=#001DBC;fontStyle=1;strokeWidth=2;" edge="1" parent="1" source="scXMGPz5spfUINmtOMEG-2" target="scXMGPz5spfUINmtOMEG-4">
          <mxGeometry relative="1" as="geometry" />
        </mxCell>
        <mxCell id="scXMGPz5spfUINmtOMEG-2" value="2" style="ellipse;whiteSpace=wrap;html=1;aspect=fixed;fillColor=#0050ef;fontColor=#ffffff;strokeColor=#001DBC;fontStyle=1" vertex="1" parent="1">
          <mxGeometry x="300" y="70" width="40" height="40" as="geometry" />
        </mxCell>
        <mxCell id="scXMGPz5spfUINmtOMEG-3" value="3" style="ellipse;whiteSpace=wrap;html=1;aspect=fixed;fillColor=#0050ef;fontColor=#ffffff;strokeColor=#001DBC;fontStyle=1" vertex="1" parent="1">
          <mxGeometry x="240" y="150" width="40" height="40" as="geometry" />
        </mxCell>
        <mxCell id="scXMGPz5spfUINmtOMEG-8" style="edgeStyle=none;rounded=0;orthogonalLoop=1;jettySize=auto;html=1;exitX=0;exitY=0.5;exitDx=0;exitDy=0;entryX=1;entryY=0.5;entryDx=0;entryDy=0;endArrow=none;endFill=0;fillColor=#0050ef;strokeColor=#001DBC;fontStyle=1;strokeWidth=2;" edge="1" parent="1" source="scXMGPz5spfUINmtOMEG-4" target="scXMGPz5spfUINmtOMEG-3">
          <mxGeometry relative="1" as="geometry" />
        </mxCell>
        <mxCell id="scXMGPz5spfUINmtOMEG-4" value="4" style="ellipse;whiteSpace=wrap;html=1;aspect=fixed;fillColor=#0050ef;fontColor=#ffffff;strokeColor=#001DBC;fontStyle=1" vertex="1" parent="1">
          <mxGeometry x="360" y="150" width="40" height="40" as="geometry" />
        </mxCell>
        <mxCell id="scXMGPz5spfUINmtOMEG-9" style="rounded=0;orthogonalLoop=1;jettySize=auto;html=1;exitX=0.5;exitY=1;exitDx=0;exitDy=0;endArrow=none;endFill=0;fillColor=#0050ef;strokeColor=#001DBC;fontStyle=1;strokeWidth=2;" edge="1" source="scXMGPz5spfUINmtOMEG-10" target="scXMGPz5spfUINmtOMEG-13" parent="1">
          <mxGeometry relative="1" as="geometry" />
        </mxCell>
        <mxCell id="scXMGPz5spfUINmtOMEG-10" value="1" style="ellipse;whiteSpace=wrap;html=1;aspect=fixed;fillColor=#0050ef;fontColor=#ffffff;strokeColor=#001DBC;fontStyle=1" vertex="1" parent="1">
          <mxGeometry x="70" y="230" width="40" height="40" as="geometry" />
        </mxCell>
        <mxCell id="scXMGPz5spfUINmtOMEG-12" style="edgeStyle=none;rounded=0;orthogonalLoop=1;jettySize=auto;html=1;exitX=1;exitY=1;exitDx=0;exitDy=0;entryX=0.5;entryY=0;entryDx=0;entryDy=0;endArrow=none;endFill=0;fillColor=#0050ef;strokeColor=#001DBC;fontStyle=1;strokeWidth=2;" edge="1" source="scXMGPz5spfUINmtOMEG-13" target="scXMGPz5spfUINmtOMEG-16" parent="1">
          <mxGeometry relative="1" as="geometry" />
        </mxCell>
        <mxCell id="scXMGPz5spfUINmtOMEG-13" value="2" style="ellipse;whiteSpace=wrap;html=1;aspect=fixed;fillColor=#0050ef;fontColor=#ffffff;strokeColor=#001DBC;fontStyle=1" vertex="1" parent="1">
          <mxGeometry x="70" y="310" width="40" height="40" as="geometry" />
        </mxCell>
        <mxCell id="scXMGPz5spfUINmtOMEG-14" value="3" style="ellipse;whiteSpace=wrap;html=1;aspect=fixed;fillColor=#0050ef;fontColor=#ffffff;strokeColor=#001DBC;fontStyle=1" vertex="1" parent="1">
          <mxGeometry x="10" y="390" width="40" height="40" as="geometry" />
        </mxCell>
        <mxCell id="scXMGPz5spfUINmtOMEG-15" style="edgeStyle=none;rounded=0;orthogonalLoop=1;jettySize=auto;html=1;exitX=0;exitY=0.5;exitDx=0;exitDy=0;entryX=1;entryY=0.5;entryDx=0;entryDy=0;endArrow=none;endFill=0;fillColor=#0050ef;strokeColor=#001DBC;fontStyle=1;strokeWidth=2;" edge="1" source="scXMGPz5spfUINmtOMEG-16" target="scXMGPz5spfUINmtOMEG-14" parent="1">
          <mxGeometry relative="1" as="geometry" />
        </mxCell>
        <mxCell id="scXMGPz5spfUINmtOMEG-16" value="4" style="ellipse;whiteSpace=wrap;html=1;aspect=fixed;fillColor=#0050ef;fontColor=#ffffff;strokeColor=#001DBC;fontStyle=1" vertex="1" parent="1">
          <mxGeometry x="130" y="390" width="40" height="40" as="geometry" />
        </mxCell>
        <mxCell id="scXMGPz5spfUINmtOMEG-17" style="rounded=0;orthogonalLoop=1;jettySize=auto;html=1;exitX=0.5;exitY=1;exitDx=0;exitDy=0;endArrow=none;endFill=0;fillColor=#0050ef;strokeColor=#001DBC;fontStyle=1;strokeWidth=2;" edge="1" source="scXMGPz5spfUINmtOMEG-18" target="scXMGPz5spfUINmtOMEG-21" parent="1">
          <mxGeometry relative="1" as="geometry" />
        </mxCell>
        <mxCell id="scXMGPz5spfUINmtOMEG-18" value="1" style="ellipse;whiteSpace=wrap;html=1;aspect=fixed;fillColor=#0050ef;fontColor=#ffffff;strokeColor=#001DBC;fontStyle=1" vertex="1" parent="1">
          <mxGeometry x="290" y="230" width="40" height="40" as="geometry" />
        </mxCell>
        <mxCell id="scXMGPz5spfUINmtOMEG-19" style="edgeStyle=none;rounded=0;orthogonalLoop=1;jettySize=auto;html=1;exitX=0;exitY=1;exitDx=0;exitDy=0;entryX=0.5;entryY=0;entryDx=0;entryDy=0;endArrow=none;endFill=0;fillColor=#0050ef;strokeColor=#001DBC;fontStyle=1;strokeWidth=2;" edge="1" source="scXMGPz5spfUINmtOMEG-21" target="scXMGPz5spfUINmtOMEG-22" parent="1">
          <mxGeometry relative="1" as="geometry" />
        </mxCell>
        <mxCell id="scXMGPz5spfUINmtOMEG-20" style="edgeStyle=none;rounded=0;orthogonalLoop=1;jettySize=auto;html=1;exitX=1;exitY=1;exitDx=0;exitDy=0;entryX=0.5;entryY=0;entryDx=0;entryDy=0;endArrow=none;endFill=0;fillColor=#0050ef;strokeColor=#001DBC;fontStyle=1;strokeWidth=2;" edge="1" source="scXMGPz5spfUINmtOMEG-21" target="scXMGPz5spfUINmtOMEG-24" parent="1">
          <mxGeometry relative="1" as="geometry" />
        </mxCell>
        <mxCell id="scXMGPz5spfUINmtOMEG-21" value="2" style="ellipse;whiteSpace=wrap;html=1;aspect=fixed;fillColor=#0050ef;fontColor=#ffffff;strokeColor=#001DBC;fontStyle=1" vertex="1" parent="1">
          <mxGeometry x="290" y="310" width="40" height="40" as="geometry" />
        </mxCell>
        <mxCell id="scXMGPz5spfUINmtOMEG-22" value="3" style="ellipse;whiteSpace=wrap;html=1;aspect=fixed;fillColor=#0050ef;fontColor=#ffffff;strokeColor=#001DBC;fontStyle=1" vertex="1" parent="1">
          <mxGeometry x="230" y="390" width="40" height="40" as="geometry" />
        </mxCell>
        <mxCell id="scXMGPz5spfUINmtOMEG-24" value="4" style="ellipse;whiteSpace=wrap;html=1;aspect=fixed;fillColor=#0050ef;fontColor=#ffffff;strokeColor=#001DBC;fontStyle=1" vertex="1" parent="1">
          <mxGeometry x="350" y="390" width="40" height="40" as="geometry" />
        </mxCell>
        <mxCell id="scXMGPz5spfUINmtOMEG-32" style="rounded=0;orthogonalLoop=1;jettySize=auto;html=1;exitX=0.5;exitY=1;exitDx=0;exitDy=0;endArrow=none;endFill=0;fillColor=#0050ef;strokeColor=#001DBC;fontStyle=1;strokeWidth=2;" edge="1" source="scXMGPz5spfUINmtOMEG-33" target="scXMGPz5spfUINmtOMEG-36" parent="1">
          <mxGeometry relative="1" as="geometry" />
        </mxCell>
        <mxCell id="scXMGPz5spfUINmtOMEG-33" value="1" style="ellipse;whiteSpace=wrap;html=1;aspect=fixed;fillColor=#0050ef;fontColor=#ffffff;strokeColor=#001DBC;fontStyle=1" vertex="1" parent="1">
          <mxGeometry x="510" y="230" width="40" height="40" as="geometry" />
        </mxCell>
        <mxCell id="scXMGPz5spfUINmtOMEG-34" style="edgeStyle=none;rounded=0;orthogonalLoop=1;jettySize=auto;html=1;exitX=0;exitY=1;exitDx=0;exitDy=0;entryX=0.5;entryY=0;entryDx=0;entryDy=0;endArrow=none;endFill=0;fillColor=#0050ef;strokeColor=#001DBC;fontStyle=1;strokeWidth=2;" edge="1" source="scXMGPz5spfUINmtOMEG-36" target="scXMGPz5spfUINmtOMEG-37" parent="1">
          <mxGeometry relative="1" as="geometry" />
        </mxCell>
        <mxCell id="scXMGPz5spfUINmtOMEG-36" value="2" style="ellipse;whiteSpace=wrap;html=1;aspect=fixed;fillColor=#0050ef;fontColor=#ffffff;strokeColor=#001DBC;fontStyle=1" vertex="1" parent="1">
          <mxGeometry x="510" y="310" width="40" height="40" as="geometry" />
        </mxCell>
        <mxCell id="scXMGPz5spfUINmtOMEG-37" value="3" style="ellipse;whiteSpace=wrap;html=1;aspect=fixed;fillColor=#0050ef;fontColor=#ffffff;strokeColor=#001DBC;fontStyle=1" vertex="1" parent="1">
          <mxGeometry x="450" y="390" width="40" height="40" as="geometry" />
        </mxCell>
        <mxCell id="scXMGPz5spfUINmtOMEG-38" style="edgeStyle=none;rounded=0;orthogonalLoop=1;jettySize=auto;html=1;exitX=0;exitY=0.5;exitDx=0;exitDy=0;entryX=1;entryY=0.5;entryDx=0;entryDy=0;endArrow=none;endFill=0;fillColor=#0050ef;strokeColor=#001DBC;fontStyle=1;strokeWidth=2;" edge="1" source="scXMGPz5spfUINmtOMEG-39" target="scXMGPz5spfUINmtOMEG-37" parent="1">
          <mxGeometry relative="1" as="geometry" />
        </mxCell>
        <mxCell id="scXMGPz5spfUINmtOMEG-39" value="4" style="ellipse;whiteSpace=wrap;html=1;aspect=fixed;fillColor=#0050ef;fontColor=#ffffff;strokeColor=#001DBC;fontStyle=1" vertex="1" parent="1">
          <mxGeometry x="570" y="390" width="40" height="40" as="geometry" />
        </mxCell>
        <mxCell id="scXMGPz5spfUINmtOMEG-41" value="&lt;span&gt;&lt;span style=&quot;font-size: 11pt; font-family: &amp;quot;arial&amp;quot;; background-color: transparent; font-style: normal; font-variant: normal; text-decoration: none; vertical-align: baseline;&quot; id=&quot;docs-internal-guid-60c91ade-7fff-c4dd-2ca3-1d98da3ce964&quot;&gt;spanning tree - 1&lt;br&gt;&lt;/span&gt;&lt;/span&gt;" style="text;html=1;align=center;verticalAlign=middle;resizable=0;points=[];autosize=1;strokeColor=#A50040;fillColor=#d80073;fontColor=#FFFFFF;fontStyle=1;labelBorderColor=none;rounded=1;" vertex="1" parent="1">
          <mxGeometry x="25" y="450" width="130" height="20" as="geometry" />
        </mxCell>
        <mxCell id="scXMGPz5spfUINmtOMEG-42" value="&lt;span&gt;&lt;span style=&quot;font-size: 11pt ; font-family: &amp;#34;arial&amp;#34; ; background-color: transparent ; font-style: normal ; font-variant: normal ; text-decoration: none ; vertical-align: baseline&quot; id=&quot;docs-internal-guid-60c91ade-7fff-c4dd-2ca3-1d98da3ce964&quot;&gt;spanning tree - 2&lt;br&gt;&lt;/span&gt;&lt;/span&gt;" style="text;html=1;align=center;verticalAlign=middle;resizable=0;points=[];autosize=1;strokeColor=#A50040;fillColor=#d80073;fontColor=#FFFFFF;fontStyle=1;labelBorderColor=none;rounded=1;" vertex="1" parent="1">
          <mxGeometry x="245" y="450" width="130" height="20" as="geometry" />
        </mxCell>
        <mxCell id="scXMGPz5spfUINmtOMEG-43" value="&lt;span&gt;&lt;span style=&quot;font-size: 11pt ; font-family: &amp;#34;arial&amp;#34; ; background-color: transparent ; font-style: normal ; font-variant: normal ; text-decoration: none ; vertical-align: baseline&quot; id=&quot;docs-internal-guid-60c91ade-7fff-c4dd-2ca3-1d98da3ce964&quot;&gt;spanning tree - 3&lt;br&gt;&lt;/span&gt;&lt;/span&gt;" style="text;html=1;align=center;verticalAlign=middle;resizable=0;points=[];autosize=1;strokeColor=#A50040;fillColor=#d80073;fontColor=#FFFFFF;fontStyle=1;labelBorderColor=none;rounded=1;" vertex="1" parent="1">
          <mxGeometry x="465" y="450" width="130" height="20" as="geometry" />
        </mxCell>
        <mxCell id="scXMGPz5spfUINmtOMEG-44" value="Main graph - G" style="text;html=1;align=center;verticalAlign=middle;resizable=0;points=[];autosize=1;strokeColor=#A50040;fillColor=#d80073;fontColor=#FFFFFF;fontStyle=1;labelBorderColor=none;rounded=1;" vertex="1" parent="1">
          <mxGeometry x="260" y="200" width="120" height="20" as="geometry" />
        </mxCell>
      </root>
    </mxGraphModel>
  </diagram>
</mxfile>
